# Blender 5.1.0
# www.blender.org
mtllib groundAndTile.mtl
o 平面
v -20.000000 2.924500 20.000000
v 19.772102 2.619966 20.000000
v -20.000000 -0.825700 -20.000000
v 20.000000 0.000000 -20.000000
v -20.000000 -0.825700 -17.500000
v -20.000000 0.000000 -15.000000
v -20.000000 0.000000 -12.500000
v -20.000000 0.000000 -10.000000
v -20.000000 0.000000 -7.500000
v -20.000000 0.000000 -5.000000
v -20.000000 0.000000 -2.500000
v -20.000000 1.060342 0.000000
v -20.000000 1.060342 2.500000
v -20.000000 1.060342 5.000000
v -20.000000 1.060342 7.500000
v -20.000000 1.628046 10.000000
v -20.000000 2.275072 12.500000
v -20.000000 2.924500 15.000000
v -20.000000 2.924500 17.500000
v 20.000000 2.618776 17.500000
v 20.000000 1.422272 15.000000
v 20.000000 1.422272 12.500000
v 20.000000 0.000000 10.000000
v 20.000000 0.000000 7.500000
v 20.000000 0.000000 5.000000
v 20.000000 0.708042 2.500000
v 20.000000 0.708042 0.000000
v 20.000000 0.708042 -2.500000
v 20.000000 0.708042 -5.000000
v 20.000000 0.708042 -7.500000
v 20.000000 0.708042 -10.000000
v 20.000000 0.000000 -12.500000
v 20.000000 0.000000 -15.000000
v 20.000000 2.030863 -17.500000
v -17.500000 2.924500 20.000000
v -15.000000 2.924500 20.000000
v -12.500000 2.277474 20.000000
v -10.000000 0.000000 20.000000
v -7.500000 0.000000 20.000000
v -5.000000 0.643783 20.000000
v -2.500000 0.643783 20.000000
v 0.000000 0.643783 20.000000
v 2.500000 0.643783 20.000000
v 5.000000 0.643783 20.000000
v 7.500000 0.643783 20.000000
v 10.000000 0.000000 20.000000
v 12.500000 0.000000 20.000000
v 15.000000 0.000000 20.000000
v 17.500000 1.422272 20.000000
v 17.500000 1.149406 -20.000000
v 15.000000 0.000000 -20.000000
v 12.500000 0.000000 -20.000000
v 10.000000 0.000000 -20.000000
v 7.500000 1.119047 -20.000000
v 5.000000 1.119047 -20.000000
v 2.500000 1.119047 -20.000000
v 0.000000 2.255044 -20.000000
v -2.500000 2.255044 -20.000000
v -5.000000 1.119047 -20.000000
v -7.500000 0.000000 -20.000000
v -10.000000 -0.825700 -20.000000
v -12.500000 -0.825700 -20.000000
v -15.000000 -0.825700 -20.000000
v -17.500000 -0.825700 -20.000000
v 17.500000 1.422272 17.500000
v 15.000000 0.000000 17.500000
v 12.500000 0.000000 17.500000
v 10.000000 0.000000 17.500000
v 7.500000 0.000000 17.500000
v 5.000000 0.643783 17.500000
v 2.500000 0.643783 17.500000
v 0.000000 0.643783 17.500000
v -2.500000 0.643783 17.500000
v -5.000000 0.000000 17.500000
v -7.500000 0.000000 17.500000
v -10.000000 0.000000 17.500000
v -12.500000 2.277474 17.500000
v -15.000000 2.924500 17.500000
v -17.500000 2.924500 17.500000
v 17.500000 1.422272 15.000000
v 15.000000 0.000000 15.000000
v 12.500000 0.000000 15.000000
v 10.000000 0.000000 15.000000
v 7.500000 0.000000 15.000000
v 5.000000 0.000000 15.000000
v 2.500000 0.000000 15.000000
v 0.000000 0.643783 15.000000
v -2.500000 0.643783 15.000000
v -5.000000 0.000000 15.000000
v -7.500000 0.000000 15.000000
v -10.000000 1.628046 15.000000
v -12.500000 1.628046 15.000000
v -15.000000 1.628046 15.000000
v -17.500000 2.277474 15.000000
v 17.500000 1.422272 12.500000
v 15.000000 0.000000 12.500000
v 12.500000 0.000000 12.500000
v 10.000000 0.000000 12.500000
v 7.500000 0.000000 12.500000
v 5.000000 0.000000 12.500000
v 2.500000 0.000000 12.500000
v 0.000000 0.000000 12.500000
v -2.500000 0.000000 12.500000
v -5.000000 0.000000 12.500000
v -7.500000 0.000000 12.500000
v -10.000000 1.060342 12.500000
v -12.500000 1.060342 12.500000
v -15.000000 1.628046 12.500000
v -17.500000 1.628046 12.500000
v 17.500000 0.000000 10.000000
v 15.000000 0.000000 10.000000
v 12.500000 0.000000 10.000000
v 10.000000 0.000000 10.000000
v 7.500000 0.000000 10.000000
v 5.000000 0.632208 10.000000
v 2.500000 0.632208 10.000000
v 0.000000 0.632208 10.000000
v -2.500000 0.632208 10.000000
v -5.000000 0.000000 10.000000
v -7.500000 1.060342 10.000000
v -10.000000 1.060342 10.000000
v -12.500000 1.060342 10.000000
v -15.000000 1.060342 10.000000
v -17.500000 1.628046 10.000000
v 17.500000 0.000000 7.500000
v 15.000000 0.000000 7.500000
v 12.500000 0.000000 7.500000
v 10.000000 0.000000 7.500000
v 7.500000 1.616945 7.500000
v 5.000000 0.632208 7.500000
v 2.500000 0.632208 7.500000
v 0.000000 0.632208 7.500000
v -2.500000 0.632208 7.500000
v -5.000000 0.000000 7.500000
v -7.500000 1.060342 7.500000
v -10.000000 1.060342 7.500000
v -12.500000 1.060342 7.500000
v -15.000000 1.060342 7.500000
v -17.500000 1.060342 7.500000
v 17.500000 0.000000 5.000000
v 15.000000 0.000000 5.000000
v 12.500000 0.000000 5.000000
v 10.000000 0.000000 5.000000
v 7.500000 1.616945 5.000000
v 5.000000 1.616945 5.000000
v 2.500000 0.000000 5.000000
v 0.000000 0.000000 5.000000
v -2.500000 0.000000 5.000000
v -5.000000 0.000000 5.000000
v -7.500000 1.060342 5.000000
v -10.000000 1.060342 5.000000
v -12.500000 1.060342 5.000000
v -15.000000 1.060342 5.000000
v -17.500000 1.060342 5.000000
v 17.500000 0.708042 2.500000
v 15.000000 0.000000 2.500000
v 12.500000 0.000000 2.500000
v 10.000000 0.000000 2.500000
v 7.500000 2.663042 2.500000
v 5.000000 1.616945 2.500000
v 2.500000 0.000000 2.500000
v 0.000000 0.000000 2.500000
v -2.500000 0.000000 2.500000
v -5.000000 0.000000 2.500000
v -7.500000 0.000000 2.500000
v -10.000000 0.000000 2.500000
v -12.500000 1.060342 2.500000
v -15.000000 1.060342 2.500000
v -17.500000 1.060342 2.500000
v 17.500000 0.000000 0.000000
v 15.000000 0.000000 0.000000
v 12.500000 0.000000 0.000000
v 10.000000 0.000000 0.000000
v 7.500000 2.663042 0.000000
v 5.000000 1.046098 0.000000
v 2.500000 1.046098 0.000000
v 0.000000 0.000000 0.000000
v -2.500000 0.000000 0.000000
v -5.000000 0.000000 0.000000
v -7.500000 0.000000 0.000000
v -10.000000 0.000000 0.000000
v -12.500000 0.000000 0.000000
v -15.000000 0.000000 0.000000
v -17.500000 1.060342 0.000000
v 17.500000 0.000000 -2.500000
v 15.000000 0.000000 -2.500000
v 12.500000 0.000000 -2.500000
v 10.000000 0.000000 -2.500000
v 7.500000 1.046098 -2.500000
v 5.000000 1.236136 -2.500000
v 2.500000 1.046098 -2.500000
v 0.000000 1.046098 -2.500000
v -2.500000 0.891211 -2.500000
v -5.000000 0.891211 -2.500000
v -7.500000 0.000000 -2.500000
v -10.000000 0.000000 -2.500000
v -12.500000 0.000000 -2.500000
v -15.000000 0.000000 -2.500000
v -17.500000 0.000000 -2.500000
v 17.500000 0.000000 -5.000000
v 15.000000 0.000000 -5.000000
v 12.500000 0.000000 -5.000000
v 10.000000 1.046098 -5.000000
v 7.500000 1.046098 -5.000000
v 5.000000 1.046098 -5.000000
v 2.500000 1.046098 -5.000000
v 0.000000 0.000000 -5.000000
v -2.500000 0.891211 -5.000000
v -5.000000 0.891211 -5.000000
v -7.500000 0.891211 -5.000000
v -10.000000 0.891211 -5.000000
v -12.500000 0.000000 -5.000000
v -15.000000 0.000000 -5.000000
v -17.500000 0.000000 -5.000000
v 17.500000 0.000000 -7.500000
v 15.000000 0.000000 -7.500000
v 12.500000 0.000000 -7.500000
v 10.000000 0.000000 -7.500000
v 7.500000 1.046098 -7.500000
v 5.000000 1.046098 -7.500000
v 2.500000 1.046098 -7.500000
v 0.000000 0.000000 -7.500000
v -2.500000 0.891211 -7.500000
v -5.000000 0.891211 -7.500000
v -7.500000 0.891211 -7.500000
v -10.000000 0.891211 -7.500000
v -12.500000 0.000000 -7.500000
v -15.000000 0.000000 -7.500000
v -17.500000 0.000000 -7.500000
v 17.500000 0.000000 -10.000000
v 15.000000 0.000000 -10.000000
v 12.500000 0.000000 -10.000000
v 10.000000 0.000000 -10.000000
v 7.500000 0.000000 -10.000000
v 5.000000 0.000000 -10.000000
v 2.500000 0.000000 -10.000000
v 0.000000 0.000000 -10.000000
v -2.500000 0.000000 -10.000000
v -5.000000 0.000000 -10.000000
v -7.500000 0.891211 -10.000000
v -10.000000 0.000000 -10.000000
v -12.500000 0.000000 -10.000000
v -15.000000 0.000000 -10.000000
v -17.500000 0.000000 -10.000000
v 17.500000 0.000000 -12.500000
v 15.000000 0.000000 -12.500000
v 12.500000 0.000000 -12.500000
v 10.000000 0.000000 -12.500000
v 7.500000 0.819462 -12.500000
v 5.000000 0.000000 -12.500000
v 2.500000 0.000000 -12.500000
v 0.000000 0.000000 -12.500000
v -2.500000 0.000000 -12.500000
v -5.000000 0.000000 -12.500000
v -7.500000 1.119047 -12.500000
v -10.000000 0.000000 -12.500000
v -12.500000 0.000000 -12.500000
v -15.000000 0.000000 -12.500000
v -17.500000 0.000000 -12.500000
v 17.500000 0.000000 -15.000000
v 15.000000 0.000000 -15.000000
v 12.500000 0.000000 -15.000000
v 10.000000 0.000000 -15.000000
v 7.500000 0.000000 -15.000000
v 5.000000 0.000000 -15.000000
v 2.500000 0.000000 -15.000000
v 0.000000 0.000000 -15.000000
v -2.500000 1.119047 -15.000000
v -5.000000 1.119047 -15.000000
v -7.500000 1.119047 -15.000000
v -10.000000 0.000000 -15.000000
v -12.500000 0.000000 -15.000000
v -15.000000 0.000000 -15.000000
v -17.500000 0.000000 -15.000000
v 17.500000 1.149406 -17.500000
v 15.000000 0.000000 -17.500000
v 12.500000 0.000000 -17.500000
v 10.000000 0.000000 -17.500000
v 7.500000 0.000000 -17.500000
v 5.000000 0.000000 -17.500000
v 2.500000 1.119047 -17.500000
v 0.000000 1.119047 -17.500000
v -2.500000 1.119047 -17.500000
v -5.000000 1.119047 -17.500000
v -7.500000 1.119047 -17.500000
v -10.000000 0.000000 -17.500000
v -12.500000 0.000000 -17.500000
v -15.000000 -0.825700 -17.500000
v -17.500000 -0.825700 -17.500000
vn -0.0000 1.0000 -0.0000
vn -0.4483 0.8936 -0.0206
vn 0.0496 0.9254 -0.3759
vn -0.0000 0.9991 -0.0430
vn -0.0000 0.9990 -0.0444
vn -0.0000 0.9992 -0.0402
vn 0.0700 0.9829 -0.1703
vn 0.2262 0.9473 -0.2270
vn 0.1372 0.9810 -0.1373
vn 0.0270 0.9993 -0.0270
vn -0.4248 0.9042 -0.0446
vn -0.0305 0.9991 -0.0305
vn -0.0000 0.9990 -0.0458
vn -0.0000 0.9991 0.0419
vn -0.0821 0.9960 0.0358
vn -0.1962 0.9772 -0.0806
vn -0.2725 0.9622 -0.0000
vn -0.2496 0.9680 -0.0246
vn -0.0276 0.9992 -0.0276
vn -0.0124 0.9989 0.0446
vn -0.0347 0.9994 -0.0059
vn 0.0412 0.9991 -0.0000
vn 0.3754 0.9269 -0.0000
vn 0.0473 0.9989 -0.0000
vn -0.0269 0.9993 -0.0269
vn -0.1267 0.9838 -0.1267
vn 0.0269 0.9993 -0.0269
vn 0.1267 0.9838 -0.1267
vn -0.0458 0.9990 -0.0000
vn -0.4705 0.8823 -0.0108
vn -0.1812 0.9615 -0.2064
vn -0.0448 0.9990 -0.0000
vn 0.0302 0.9991 0.0302
vn 0.0254 0.9217 0.3871
vn 0.1237 0.9460 0.2997
vn 0.2148 0.9527 0.2148
vn 0.0254 0.9195 0.3924
vn -0.0254 0.9195 0.3924
vn -0.2200 0.9755 -0.0000
vn -0.3314 0.8834 -0.3314
vn -0.0278 0.9479 -0.3173
vn -0.0934 0.9694 -0.2268
vn -0.0286 0.9992 -0.0286
vn -0.4002 0.9128 -0.0809
vn 0.0104 0.9999 -0.0104
vn 0.0469 0.9978 -0.0469
vn 0.0266 0.9979 -0.0592
vn 0.0139 0.9993 -0.0339
vn -0.0339 0.9993 -0.0139
vn -0.0592 0.9979 -0.0266
vn 0.0004 1.0000 0.0004
vn 0.0749 0.9967 0.0310
vn 0.2649 0.9499 -0.1661
vn 0.0503 0.9979 -0.0402
vn 0.0209 0.9992 -0.0340
vn -0.1013 0.9945 -0.0263
vn -0.0385 0.9985 -0.0385
vn 0.0381 0.9992 0.0113
vn 0.1617 0.9834 -0.0827
vn 0.1272 0.9809 -0.1471
vn 0.1201 0.9781 -0.1702
vn 0.1767 0.9453 -0.2741
vn -0.0443 0.9980 -0.0443
vn -0.0384 0.9991 -0.0159
vn 0.0104 0.9999 0.0104
vn 0.0138 0.9993 0.0337
vn 0.0206 0.9990 0.0387
vn 0.0404 0.9990 0.0177
vn -0.0740 0.9973 -0.0001
vn -0.0196 0.9996 0.0205
vn 0.0684 0.9974 0.0222
vn 0.0803 0.9965 -0.0212
vn 0.0256 0.9981 -0.0567
vn 0.1166 0.9863 -0.1166
vn 0.1255 0.9841 -0.1255
vn -0.0159 0.9991 -0.0384
vn -0.0112 0.9999 -0.0112
vn 0.0113 0.9999 0.0113
vn 0.0484 0.9974 0.0540
vn -0.0033 0.9972 0.0741
vn -0.0000 0.9992 0.0410
vn -0.0383 0.9985 0.0383
vn 0.0019 0.9957 0.0921
vn 0.0677 0.9973 0.0296
vn 0.0110 0.9999 0.0110
vn 0.0102 0.9999 -0.0102
vn 0.0447 0.9980 -0.0447
vn 0.0880 0.9854 -0.1457
vn 0.0389 0.9991 0.0161
vn 0.0591 0.9870 0.1498
vn -0.0475 0.9977 0.0475
vn -0.0206 0.9997 -0.0164
vn -0.0000 0.9992 -0.0410
vn -0.0383 0.9985 -0.0383
vn 0.0232 0.9985 -0.0488
vn 0.0444 0.9990 -0.0000
vn 0.0134 0.9994 -0.0329
vn -0.0142 0.9993 0.0346
vn -0.0106 0.9999 0.0106
vn 0.0460 0.9989 0.0055
vn 0.1344 0.9762 0.1704
vn -0.2713 0.9500 0.1545
vn -0.0435 0.9984 -0.0368
vn -0.0138 0.9993 -0.0337
vn 0.0325 0.9985 -0.0444
vn 0.0425 0.9982 -0.0425
vn 0.0153 0.9992 -0.0370
vn 0.0110 0.9999 -0.0110
vn -0.0912 0.9954 0.0302
vn -0.0276 0.9996 -0.0000
vn 0.0467 0.9989 0.0056
vn 0.0092 0.9993 -0.0357
vn -0.3856 0.9219 0.0375
vn -0.0706 0.9971 0.0287
vn -0.0110 0.9999 0.0110
vn 0.0296 0.9973 -0.0677
vn -0.0610 0.9978 -0.0272
vn -0.0106 0.9999 -0.0106
vn 0.0453 0.9989 -0.0094
vn 0.0096 0.9956 -0.0928
vn -0.1048 0.9941 0.0283
vn -0.1096 0.9910 0.0768
vn -0.0323 0.9972 0.0669
vn -0.0017 0.9990 0.0436
vn -0.0149 0.9992 0.0361
vn -0.0109 0.9999 0.0109
vn -0.0419 0.9991 -0.0000
vn 0.0675 0.9976 0.0149
vn 0.1322 0.9904 -0.0413
vn -0.0281 0.9992 -0.0281
vn -0.0715 0.9974 -0.0000
vn -0.1239 0.9923 0.0085
vn 0.0144 0.9983 0.0565
vn -0.0287 0.9975 0.0650
vn 0.0299 0.9996 -0.0000
vn 0.2048 0.9788 -0.0000
vn 0.0474 0.9988 -0.0128
vn -0.0000 0.9999 -0.0154
vn -0.0560 0.9980 -0.0308
vn -0.0019 0.9996 -0.0282
vn 0.0333 0.9993 -0.0172
vn -0.0413 0.9983 0.0413
vn -0.0361 0.9992 0.0149
vn 0.0542 0.9971 -0.0542
vn 0.0295 0.9973 -0.0675
vn -0.0000 0.9990 -0.0443
vn -0.0424 0.9982 -0.0424
vn -0.0005 0.9937 -0.1117
vn 0.0413 0.9983 -0.0413
vn 0.0149 0.9992 -0.0361
vn -0.0000 0.9996 -0.0290
vn -0.0650 0.9975 -0.0287
vn -0.0361 0.9992 -0.0149
vn -0.0346 0.9993 -0.0142
vn 0.0292 0.9996 -0.0001
vn 0.0492 0.9986 -0.0217
vn -0.0238 0.9987 -0.0446
vn -0.0152 0.9992 -0.0369
vn -0.0001 0.9996 -0.0294
vn 0.0417 0.9984 -0.0375
vn -0.0000 0.9980 -0.0634
vn -0.0657 0.9975 -0.0249
vn -0.0109 0.9999 -0.0109
vn 0.0285 0.9996 -0.0000
vn -0.0285 0.9996 -0.0000
vn 0.0111 0.9999 0.0111
vn 0.0154 0.9992 0.0373
vn 0.0422 0.9980 0.0470
vn -0.0422 0.9930 0.1103
vn -0.0443 0.9990 0.0025
vn -0.0216 0.9991 0.0372
vn -0.0111 0.9999 0.0111
vn 0.0108 0.9999 -0.0108
vn -0.0000 0.9996 -0.0285
vn 0.0002 1.0000 0.0002
vn 0.0299 0.9972 0.0685
vn -0.0467 0.9986 0.0253
vn -0.0447 0.9990 -0.0000
vn -0.0108 0.9999 -0.0108
vn -0.0146 0.9993 -0.0356
vn -0.1813 0.9769 0.1134
vn -0.0374 0.9992 0.0154
vn 0.1597 0.9501 0.2679
vn 0.1245 0.9452 0.3017
vn -0.0000 0.9965 0.0839
vn -0.0302 0.9995 -0.0000
vn -0.0689 0.9972 -0.0300
vn -0.0805 0.9935 -0.0803
vn -0.0282 0.9976 -0.0638
vt 0.937500 0.937500
vt 1.000000 0.937500
vt 1.000000 1.000000
vt 0.937500 1.000000
vt 0.937500 0.000000
vt 1.000000 0.000000
vt 1.000000 0.062500
vt 0.937500 0.062500
vt 1.000000 0.125000
vt 0.937500 0.125000
vt 1.000000 0.187500
vt 0.937500 0.187500
vt 1.000000 0.250000
vt 0.937500 0.250000
vt 1.000000 0.312500
vt 0.937500 0.312500
vt 1.000000 0.375000
vt 0.937500 0.375000
vt 1.000000 0.437500
vt 0.937500 0.437500
vt 1.000000 0.500000
vt 0.937500 0.500000
vt 1.000000 0.562500
vt 0.937500 0.562500
vt 1.000000 0.625000
vt 0.937500 0.625000
vt 1.000000 0.687500
vt 0.937500 0.687500
vt 1.000000 0.750000
vt 0.937500 0.750000
vt 1.000000 0.812500
vt 0.937500 0.812500
vt 1.000000 0.875000
vt 0.937500 0.875000
vt 0.000000 0.875000
vt 0.062500 0.875000
vt 0.062500 0.937500
vt 0.000000 0.937500
vt 0.125000 0.875000
vt 0.125000 0.937500
vt 0.187500 0.875000
vt 0.187500 0.937500
vt 0.250000 0.875000
vt 0.250000 0.937500
vt 0.312500 0.875000
vt 0.312500 0.937500
vt 0.375000 0.875000
vt 0.375000 0.937500
vt 0.437500 0.875000
vt 0.437500 0.937500
vt 0.500000 0.875000
vt 0.500000 0.937500
vt 0.562500 0.875000
vt 0.562500 0.937500
vt 0.625000 0.875000
vt 0.625000 0.937500
vt 0.687500 0.875000
vt 0.687500 0.937500
vt 0.750000 0.875000
vt 0.750000 0.937500
vt 0.812500 0.875000
vt 0.812500 0.937500
vt 0.875000 0.875000
vt 0.875000 0.937500
vt 0.000000 0.812500
vt 0.062500 0.812500
vt 0.125000 0.812500
vt 0.187500 0.812500
vt 0.250000 0.812500
vt 0.312500 0.812500
vt 0.375000 0.812500
vt 0.437500 0.812500
vt 0.500000 0.812500
vt 0.562500 0.812500
vt 0.625000 0.812500
vt 0.687500 0.812500
vt 0.750000 0.812500
vt 0.812500 0.812500
vt 0.875000 0.812500
vt 0.000000 0.750000
vt 0.062500 0.750000
vt 0.125000 0.750000
vt 0.187500 0.750000
vt 0.250000 0.750000
vt 0.312500 0.750000
vt 0.375000 0.750000
vt 0.437500 0.750000
vt 0.500000 0.750000
vt 0.562500 0.750000
vt 0.625000 0.750000
vt 0.687500 0.750000
vt 0.750000 0.750000
vt 0.812500 0.750000
vt 0.875000 0.750000
vt 0.000000 0.687500
vt 0.062500 0.687500
vt 0.125000 0.687500
vt 0.187500 0.687500
vt 0.250000 0.687500
vt 0.312500 0.687500
vt 0.375000 0.687500
vt 0.437500 0.687500
vt 0.500000 0.687500
vt 0.562500 0.687500
vt 0.625000 0.687500
vt 0.687500 0.687500
vt 0.750000 0.687500
vt 0.812500 0.687500
vt 0.875000 0.687500
vt 0.000000 0.625000
vt 0.062500 0.625000
vt 0.125000 0.625000
vt 0.187500 0.625000
vt 0.250000 0.625000
vt 0.312500 0.625000
vt 0.375000 0.625000
vt 0.437500 0.625000
vt 0.500000 0.625000
vt 0.562500 0.625000
vt 0.625000 0.625000
vt 0.687500 0.625000
vt 0.750000 0.625000
vt 0.812500 0.625000
vt 0.875000 0.625000
vt 0.000000 0.562500
vt 0.062500 0.562500
vt 0.125000 0.562500
vt 0.187500 0.562500
vt 0.250000 0.562500
vt 0.312500 0.562500
vt 0.375000 0.562500
vt 0.437500 0.562500
vt 0.500000 0.562500
vt 0.562500 0.562500
vt 0.625000 0.562500
vt 0.687500 0.562500
vt 0.750000 0.562500
vt 0.812500 0.562500
vt 0.875000 0.562500
vt 0.000000 0.500000
vt 0.062500 0.500000
vt 0.125000 0.500000
vt 0.187500 0.500000
vt 0.250000 0.500000
vt 0.312500 0.500000
vt 0.375000 0.500000
vt 0.437500 0.500000
vt 0.500000 0.500000
vt 0.562500 0.500000
vt 0.625000 0.500000
vt 0.687500 0.500000
vt 0.750000 0.500000
vt 0.812500 0.500000
vt 0.875000 0.500000
vt 0.000000 0.437500
vt 0.062500 0.437500
vt 0.125000 0.437500
vt 0.187500 0.437500
vt 0.250000 0.437500
vt 0.312500 0.437500
vt 0.375000 0.437500
vt 0.437500 0.437500
vt 0.500000 0.437500
vt 0.562500 0.437500
vt 0.625000 0.437500
vt 0.687500 0.437500
vt 0.750000 0.437500
vt 0.812500 0.437500
vt 0.875000 0.437500
vt 0.000000 0.375000
vt 0.062500 0.375000
vt 0.125000 0.375000
vt 0.187500 0.375000
vt 0.250000 0.375000
vt 0.312500 0.375000
vt 0.375000 0.375000
vt 0.437500 0.375000
vt 0.500000 0.375000
vt 0.562500 0.375000
vt 0.625000 0.375000
vt 0.687500 0.375000
vt 0.750000 0.375000
vt 0.812500 0.375000
vt 0.875000 0.375000
vt 0.000000 0.312500
vt 0.062500 0.312500
vt 0.125000 0.312500
vt 0.187500 0.312500
vt 0.250000 0.312500
vt 0.312500 0.312500
vt 0.375000 0.312500
vt 0.437500 0.312500
vt 0.500000 0.312500
vt 0.562500 0.312500
vt 0.625000 0.312500
vt 0.687500 0.312500
vt 0.750000 0.312500
vt 0.812500 0.312500
vt 0.875000 0.312500
vt 0.000000 0.250000
vt 0.062500 0.250000
vt 0.125000 0.250000
vt 0.187500 0.250000
vt 0.250000 0.250000
vt 0.312500 0.250000
vt 0.375000 0.250000
vt 0.437500 0.250000
vt 0.500000 0.250000
vt 0.562500 0.250000
vt 0.625000 0.250000
vt 0.687500 0.250000
vt 0.750000 0.250000
vt 0.812500 0.250000
vt 0.875000 0.250000
vt 0.000000 0.187500
vt 0.062500 0.187500
vt 0.125000 0.187500
vt 0.187500 0.187500
vt 0.250000 0.187500
vt 0.312500 0.187500
vt 0.375000 0.187500
vt 0.437500 0.187500
vt 0.500000 0.187500
vt 0.562500 0.187500
vt 0.625000 0.187500
vt 0.687500 0.187500
vt 0.750000 0.187500
vt 0.812500 0.187500
vt 0.875000 0.187500
vt 0.000000 0.125000
vt 0.062500 0.125000
vt 0.125000 0.125000
vt 0.187500 0.125000
vt 0.250000 0.125000
vt 0.312500 0.125000
vt 0.375000 0.125000
vt 0.437500 0.125000
vt 0.500000 0.125000
vt 0.562500 0.125000
vt 0.625000 0.125000
vt 0.687500 0.125000
vt 0.750000 0.125000
vt 0.812500 0.125000
vt 0.875000 0.125000
vt 0.000000 0.062500
vt 0.062500 0.062500
vt 0.125000 0.062500
vt 0.187500 0.062500
vt 0.250000 0.062500
vt 0.312500 0.062500
vt 0.375000 0.062500
vt 0.437500 0.062500
vt 0.500000 0.062500
vt 0.562500 0.062500
vt 0.625000 0.062500
vt 0.687500 0.062500
vt 0.750000 0.062500
vt 0.812500 0.062500
vt 0.875000 0.062500
vt 0.000000 0.000000
vt 0.062500 0.000000
vt 0.125000 0.000000
vt 0.187500 0.000000
vt 0.250000 0.000000
vt 0.312500 0.000000
vt 0.375000 0.000000
vt 0.437500 0.000000
vt 0.500000 0.000000
vt 0.562500 0.000000
vt 0.625000 0.000000
vt 0.687500 0.000000
vt 0.750000 0.000000
vt 0.812500 0.000000
vt 0.875000 0.000000
vt 0.062500 1.000000
vt 0.000000 1.000000
vt 0.125000 1.000000
vt 0.187500 1.000000
vt 0.250000 1.000000
vt 0.312500 1.000000
vt 0.375000 1.000000
vt 0.437500 1.000000
vt 0.500000 1.000000
vt 0.562500 1.000000
vt 0.625000 1.000000
vt 0.687500 1.000000
vt 0.750000 1.000000
vt 0.812500 1.000000
vt 0.875000 1.000000
s 1
usemtl マテリアル
f 275/1/181 34/2/21 4/3/3 50/4/31
f 49/5/30 2/6/2 20/7/11 65/8/44
f 65/8/44 20/7/11 21/9/12 80/10/56
f 80/10/56 21/9/12 22/11/13 95/12/63
f 95/12/63 22/11/13 23/13/13 110/14/76
f 110/14/76 23/13/13 24/15/1 125/16/1
f 125/16/1 24/15/1 25/17/14 140/18/98
f 140/18/98 25/17/14 26/19/15 155/20/109
f 155/20/109 26/19/15 27/21/16 170/22/117
f 170/22/117 27/21/16 28/23/17 185/24/127
f 185/24/127 28/23/17 29/25/17 200/26/127
f 200/26/127 29/25/17 30/27/17 215/28/127
f 215/28/127 30/27/17 31/29/18 230/30/154
f 230/30/154 31/29/18 32/31/19 245/32/118
f 245/32/118 32/31/19 33/33/20 260/34/171
f 260/34/171 33/33/20 34/2/21 275/1/181
f 6/35/4 274/36/4 289/37/4 5/38/4
f 274/36/4 273/39/180 288/40/189 289/37/4
f 273/39/180 272/41/179 287/42/189 288/40/189
f 272/41/179 271/43/178 286/44/188 287/42/189
f 271/43/178 270/45/177 285/46/187 286/44/188
f 270/45/177 269/47/167 284/48/186 285/46/187
f 269/47/167 268/49/176 283/50/185 284/48/186
f 268/49/176 267/51/176 282/52/184 283/50/185
f 267/51/176 266/53/167 281/54/183 282/52/184
f 266/53/167 265/55/175 280/56/176 281/54/183
f 265/55/175 264/57/174 279/58/167 280/56/176
f 264/57/174 263/59/173 278/60/166 279/58/167
f 263/59/173 262/61/1 277/62/1 278/60/166
f 262/61/1 261/63/172 276/64/182 277/62/1
f 261/63/172 260/34/171 275/1/181 276/64/182
f 7/65/1 259/66/1 274/36/4 6/35/4
f 259/66/1 258/67/1 273/39/180 274/36/4
f 258/67/1 257/68/1 272/41/179 273/39/180
f 257/68/1 256/69/170 271/43/178 272/41/179
f 256/69/170 255/70/169 270/45/177 271/43/178
f 255/70/169 254/71/168 269/47/167 270/45/177
f 254/71/168 253/72/167 268/49/176 269/47/167
f 253/72/167 252/73/166 267/51/176 268/49/176
f 252/73/166 251/74/1 266/53/167 267/51/176
f 251/74/1 250/75/165 265/55/175 266/53/167
f 250/75/165 249/76/1 264/57/174 265/55/175
f 249/76/1 248/77/164 263/59/173 264/57/174
f 248/77/164 247/78/1 262/61/1 263/59/173
f 247/78/1 246/79/1 261/63/172 262/61/1
f 246/79/1 245/32/118 260/34/171 261/63/172
f 8/80/1 244/81/1 259/66/1 7/65/1
f 244/81/1 243/82/1 258/67/1 259/66/1
f 243/82/1 242/83/163 257/68/1 258/67/1
f 242/83/163 241/84/162 256/69/170 257/68/1
f 241/84/162 240/85/161 255/70/169 256/69/170
f 240/85/161 239/86/160 254/71/168 255/70/169
f 239/86/160 238/87/150 253/72/167 254/71/168
f 238/87/150 237/88/159 252/73/166 253/72/167
f 237/88/159 236/89/158 251/74/1 252/73/166
f 236/89/158 235/90/157 250/75/165 251/74/1
f 235/90/157 234/91/156 249/76/1 250/75/165
f 234/91/156 233/92/155 248/77/164 249/76/1
f 233/92/155 232/93/1 247/78/1 248/77/164
f 232/93/1 231/94/1 246/79/1 247/78/1
f 231/94/1 230/30/154 245/32/118 246/79/1
f 9/95/1 229/96/1 244/81/1 8/80/1
f 229/96/1 228/97/1 243/82/1 244/81/1
f 228/97/1 227/98/153 242/83/163 243/82/1
f 227/98/153 226/99/152 241/84/162 242/83/163
f 226/99/152 225/100/151 240/85/161 241/84/162
f 225/100/151 224/101/150 239/86/160 240/85/161
f 224/101/150 223/102/149 238/87/150 239/86/160
f 223/102/149 222/103/148 237/88/159 238/87/150
f 222/103/148 221/104/147 236/89/158 237/88/159
f 221/104/147 220/105/146 235/90/157 236/89/158
f 220/105/146 219/106/145 234/91/156 235/90/157
f 219/106/145 218/107/144 233/92/155 234/91/156
f 218/107/144 217/108/108 232/93/1 233/92/155
f 217/108/108 216/109/1 231/94/1 232/93/1
f 216/109/1 215/28/127 230/30/154 231/94/1
f 10/110/1 214/111/1 229/96/1 9/95/1
f 214/111/1 213/112/1 228/97/1 229/96/1
f 213/112/1 212/113/143 227/98/153 228/97/1
f 212/113/143 211/114/142 226/99/152 227/98/153
f 211/114/142 210/115/125 225/100/151 226/99/152
f 210/115/125 209/116/126 224/101/150 225/100/151
f 209/116/126 208/117/141 223/102/149 224/101/150
f 208/117/141 207/118/140 222/103/148 223/102/149
f 207/118/140 206/119/139 221/104/147 222/103/148
f 206/119/139 205/120/138 220/105/146 221/104/147
f 205/120/138 204/121/137 219/106/145 220/105/146
f 204/121/137 203/122/136 218/107/144 219/106/145
f 203/122/136 202/123/135 217/108/108 218/107/144
f 202/123/135 201/124/1 216/109/1 217/108/108
f 201/124/1 200/26/127 215/28/127 216/109/1
f 11/125/5 199/126/107 214/111/1 10/110/1
f 199/126/107 198/127/108 213/112/1 214/111/1
f 198/127/108 197/128/126 212/113/143 213/112/1
f 197/128/126 196/129/125 211/114/142 212/113/143
f 196/129/125 195/130/134 210/115/125 211/114/142
f 195/130/134 194/131/134 209/116/126 210/115/125
f 194/131/134 193/132/133 208/117/141 209/116/126
f 193/132/133 192/133/132 207/118/140 208/117/141
f 192/133/132 191/134/131 206/119/139 207/118/140
f 191/134/131 190/135/130 205/120/138 206/119/139
f 190/135/130 189/136/129 204/121/137 205/120/138
f 189/136/129 188/137/128 203/122/136 204/121/137
f 188/137/128 187/138/85 202/123/135 203/122/136
f 187/138/85 186/139/1 201/124/1 202/123/135
f 186/139/1 185/24/127 200/26/127 201/124/1
f 12/140/5 184/141/116 199/126/107 11/125/5
f 184/141/116 183/142/116 198/127/108 199/126/107
f 183/142/116 182/143/107 197/128/126 198/127/108
f 182/143/107 181/144/108 196/129/125 197/128/126
f 181/144/108 180/145/126 195/130/134 196/129/125
f 180/145/126 179/146/125 194/131/134 195/130/134
f 179/146/125 178/147/124 193/132/133 194/131/134
f 178/147/124 177/148/123 192/133/132 193/132/133
f 177/148/123 176/149/122 191/134/131 192/133/132
f 176/149/122 175/150/121 190/135/130 191/134/131
f 175/150/121 174/151/120 189/136/129 190/135/130
f 174/151/120 173/152/119 188/137/128 189/136/129
f 173/152/119 172/153/1 187/138/85 188/137/128
f 172/153/1 171/154/118 186/139/1 187/138/85
f 171/154/118 170/22/117 185/24/127 186/139/1
f 13/155/1 169/156/108 184/141/116 12/140/5
f 169/156/108 168/157/107 183/142/116 184/141/116
f 168/157/107 167/158/116 182/143/107 183/142/116
f 167/158/116 166/159/116 181/144/108 182/143/107
f 166/159/116 165/160/107 180/145/126 181/144/108
f 165/160/107 164/161/108 179/146/125 180/145/126
f 164/161/108 163/162/1 178/147/124 179/146/125
f 163/162/1 162/163/115 177/148/123 178/147/124
f 162/163/115 161/164/114 176/149/122 177/148/123
f 161/164/114 160/165/113 175/150/121 176/149/122
f 160/165/113 159/166/112 174/151/120 175/150/121
f 159/166/112 158/167/111 173/152/119 174/151/120
f 158/167/111 157/168/1 172/153/1 173/152/119
f 157/168/1 156/169/110 171/154/118 172/153/1
f 156/169/110 155/20/109 170/22/117 171/154/118
f 14/170/1 154/171/1 169/156/108 13/155/1
f 154/171/1 153/172/1 168/157/107 169/156/108
f 153/172/1 152/173/108 167/158/116 168/157/107
f 152/173/108 151/174/107 166/159/116 167/158/116
f 151/174/107 150/175/106 165/160/107 166/159/116
f 150/175/106 149/176/105 164/161/108 165/160/107
f 149/176/105 148/177/104 163/162/1 164/161/108
f 148/177/104 147/178/93 162/163/115 163/162/1
f 147/178/93 146/179/103 161/164/114 162/163/115
f 146/179/103 145/180/102 160/165/113 161/164/114
f 145/180/102 144/181/101 159/166/112 160/165/113
f 144/181/101 143/182/100 158/167/111 159/166/112
f 143/182/100 142/183/1 157/168/1 158/167/111
f 142/183/1 141/184/99 156/169/110 157/168/1
f 141/184/99 140/18/98 155/20/109 156/169/110
f 15/185/6 139/186/97 154/171/1 14/170/1
f 139/186/97 138/187/86 153/172/1 154/171/1
f 138/187/86 137/188/1 152/173/108 153/172/1
f 137/188/1 136/189/1 151/174/107 152/173/108
f 136/189/1 135/190/96 150/175/106 151/174/107
f 135/190/96 134/191/95 149/176/105 150/175/106
f 134/191/95 133/192/94 148/177/104 149/176/105
f 133/192/94 132/193/93 147/178/93 148/177/104
f 132/193/93 131/194/92 146/179/103 147/178/93
f 131/194/92 130/195/91 145/180/102 146/179/103
f 130/195/91 129/196/90 144/181/101 145/180/102
f 129/196/90 128/197/89 143/182/100 144/181/101
f 128/197/89 127/198/1 142/183/1 143/182/100
f 127/198/1 126/199/1 141/184/99 142/183/1
f 126/199/1 125/16/1 140/18/98 141/184/99
f 16/200/7 124/201/88 139/186/97 15/185/6
f 124/201/88 123/202/87 138/187/86 139/186/97
f 123/202/87 122/203/86 137/188/1 138/187/86
f 122/203/86 121/204/85 136/189/1 137/188/1
f 121/204/85 120/205/84 135/190/96 136/189/1
f 120/205/84 119/206/83 134/191/95 135/190/96
f 119/206/83 118/207/82 133/192/94 134/191/95
f 118/207/82 117/208/81 132/193/93 133/192/94
f 117/208/81 116/209/81 131/194/92 132/193/93
f 116/209/81 115/210/80 130/195/91 131/194/92
f 115/210/80 114/211/79 129/196/90 130/195/91
f 114/211/79 113/212/78 128/197/89 129/196/90
f 113/212/78 112/213/1 127/198/1 128/197/89
f 112/213/1 111/214/77 126/199/1 127/198/1
f 111/214/77 110/14/76 125/16/1 126/199/1
f 17/215/8 109/216/75 124/201/88 16/200/7
f 109/216/75 108/217/74 123/202/87 124/201/88
f 108/217/74 107/218/73 122/203/86 123/202/87
f 107/218/73 106/219/72 121/204/85 122/203/86
f 106/219/72 105/220/71 120/205/84 121/204/85
f 105/220/71 104/221/70 119/206/83 120/205/84
f 104/221/70 103/222/69 118/207/82 119/206/83
f 103/222/69 102/223/68 117/208/81 118/207/82
f 102/223/68 101/224/67 116/209/81 117/208/81
f 101/224/67 100/225/66 115/210/80 116/209/81
f 100/225/66 99/226/65 114/211/79 115/210/80
f 99/226/65 98/227/1 113/212/78 114/211/79
f 98/227/1 97/228/1 112/213/1 113/212/78
f 97/228/1 96/229/64 111/214/77 112/213/1
f 96/229/64 95/12/63 110/14/76 111/214/77
f 18/230/9 94/231/62 109/216/75 17/215/8
f 94/231/62 93/232/61 108/217/74 109/216/75
f 93/232/61 92/233/60 107/218/73 108/217/74
f 92/233/60 91/234/59 106/219/72 107/218/73
f 91/234/59 90/235/58 105/220/71 106/219/72
f 90/235/58 89/236/49 104/221/70 105/220/71
f 89/236/49 88/237/57 103/222/69 104/221/70
f 88/237/57 87/238/47 102/223/68 103/222/69
f 87/238/47 86/239/47 101/224/67 102/223/68
f 86/239/47 85/240/48 100/225/66 101/224/67
f 85/240/48 84/241/45 99/226/65 100/225/66
f 84/241/45 83/242/1 98/227/1 99/226/65
f 83/242/1 82/243/1 97/228/1 98/227/1
f 82/243/1 81/244/29 96/229/64 97/228/1
f 81/244/29 80/10/56 95/12/63 96/229/64
f 19/245/10 79/246/55 94/231/62 18/230/9
f 79/246/55 78/247/54 93/232/61 94/231/62
f 78/247/54 77/248/53 92/233/60 93/232/61
f 77/248/53 76/249/52 91/234/59 92/233/60
f 76/249/52 75/250/51 90/235/58 91/234/59
f 75/250/51 74/251/50 89/236/49 90/235/58
f 74/251/50 73/252/49 88/237/57 89/236/49
f 73/252/49 72/253/45 87/238/47 88/237/57
f 72/253/45 71/254/48 86/239/47 87/238/47
f 71/254/48 70/255/47 85/240/48 86/239/47
f 70/255/47 69/256/46 84/241/45 85/240/48
f 69/256/46 68/257/45 83/242/1 84/241/45
f 68/257/45 67/258/1 82/243/1 83/242/1
f 67/258/1 66/259/29 81/244/29 82/243/1
f 66/259/29 65/8/44 80/10/56 81/244/29
f 1/260/1 35/261/1 79/246/55 19/245/10
f 35/261/1 36/262/22 78/247/54 79/246/55
f 36/262/22 37/263/23 77/248/53 78/247/54
f 37/263/23 38/264/24 76/249/52 77/248/53
f 38/264/24 39/265/25 75/250/51 76/249/52
f 39/265/25 40/266/26 74/251/50 75/250/51
f 40/266/26 41/267/25 73/252/49 74/251/50
f 41/267/25 42/268/1 72/253/45 73/252/49
f 42/268/1 43/269/1 71/254/48 72/253/45
f 43/269/1 44/270/27 70/255/47 71/254/48
f 44/270/27 45/271/28 69/256/46 70/255/47
f 45/271/28 46/272/27 68/257/45 69/256/46
f 46/272/27 47/273/1 67/258/1 68/257/45
f 47/273/1 48/274/29 66/259/29 67/258/1
f 48/274/29 49/5/30 65/8/44 66/259/29
f 5/38/4 289/37/4 64/275/1 3/276/1
f 289/37/4 288/40/189 63/277/43 64/275/1
f 288/40/189 287/42/189 62/278/42 63/277/43
f 287/42/189 286/44/188 61/279/41 62/278/42
f 286/44/188 285/46/187 60/280/40 61/279/41
f 285/46/187 284/48/186 59/281/39 60/280/40
f 284/48/186 283/50/185 58/282/38 59/281/39
f 283/50/185 282/52/184 57/283/37 58/282/38
f 282/52/184 281/54/183 56/284/36 57/283/37
f 281/54/183 280/56/176 55/285/35 56/284/36
f 280/56/176 279/58/167 54/286/34 55/285/35
f 279/58/167 278/60/166 53/287/33 54/286/34
f 278/60/166 277/62/1 52/288/1 53/287/33
f 277/62/1 276/64/182 51/289/32 52/288/1
f 276/64/182 275/1/181 50/4/31 51/289/32
